<?xml version="1.0" standalone="no"?>
<!DOCTYPE svg PUBLIC "-//W3C//DTD SVG 20010904//EN"
 "http://www.w3.org/TR/2001/REC-SVG-20010904/DTD/svg10.dtd">
<svg version="1.0" xmlns="http://www.w3.org/2000/svg"
 width="260.000000pt" height="260.000000pt" viewBox="0 0 260.000000 260.000000"
 preserveAspectRatio="xMidYMid meet">
<metadata>
Created by potrace 1.11, written by Peter Selinger 2001-2013
</metadata>
<g transform="translate(0.000000,260.000000) scale(0.100000,-0.100000)"
fill="#000000" stroke="none">
<path d="M1250 2573 c-68 -26 -117 -107 -106 -176 10 -59 41 -103 90 -126 74
-36 148 -22 199 38 93 111 19 273 -125 270 -23 0 -50 -3 -58 -6z"/>
<path d="M758 2285 c-208 -79 -287 -319 -168 -504 64 -98 163 -151 285 -151
127 0 246 74 302 188 24 50 28 69 28 147 0 78 -4 97 -28 146 -31 63 -93 126
-159 160 -55 29 -202 37 -260 14z"/>
<path d="M1645 1759 c-113 -17 -239 -97 -304 -195 l-30 -46 -143 -2 c-159 -3
-227 -19 -348 -82 -181 -94 -322 -272 -377 -474 -24 -89 -24 -290 0 -380 40
-151 147 -313 268 -405 148 -111 308 -161 498 -153 202 9 352 76 496 222 92
94 144 177 182 291 21 66 27 104 31 218 l4 137 54 36 c128 85 204 231 204 387
-1 113 -43 217 -126 306 -103 112 -252 163 -409 140z m-185 -303 c106 -45 179
-96 258 -181 90 -96 157 -225 186 -357 6 -24 2 -28 -42 -42 -113 -37 -226 -30
-337 23 -157 74 -255 229 -255 405 0 61 19 160 37 189 8 14 72 -2 153 -37z"/>
</g>
</svg>
