<svg height="79.4" viewBox="0 0 192.04 79.4" width="192.04" xmlns="http://www.w3.org/2000/svg"><g fill="#63d0df"><path d="m66.17 50.72c8.21 0 12.62-6.58 13.31-13.54l7.32 1.55c-1.58 12.41-10.16 19.27-20.63 19.27s-19-6.84-20.64-19.25l7.32-1.55c.7 6.94 5.15 13.52 13.32 13.52z"/><path d="m21.39 16.27a20.84 20.84 0 0 0 -12.84 4.9v-21.17h-8.24v34.37c0 15.16 9.4 23.6 21 23.6s20.94-8.77 20.94-20.8a20.56 20.56 0 0 0 -20.86-20.9zm.06 34.45a13.39 13.39 0 0 1 -13.13-13.63 13.39 13.39 0 0 1 13.13-13.63 13.39 13.39 0 0 1 13.13 13.63 13.39 13.39 0 0 1 -13.13 13.63z"/><path d="m111.3 16.27a20.84 20.84 0 0 0 -12.84 4.9v-21.17h-8.25v34.37c0 15.16 9.4 23.6 21 23.6s20.94-8.77 20.94-20.8a20.56 20.56 0 0 0 -20.85-20.9zm.06 34.45a13.39 13.39 0 0 1 -13.13-13.63 13.14 13.14 0 1 1 26.26 0 13.39 13.39 0 0 1 -13.13 13.63z"/><path d="m137.33 0h8.08s0 43.74 0 44.25c.06 4.75.89 6.34 5.37 6.34v7a6.19 6.19 0 0 1 -2.58.43c-5.55 0-10.88-3.75-10.88-13.5z"/><path d="m183.24 17.17-11.16 31-12.44-31h-8.85s15.77 37.68 16.76 40.14c-.66 4.54-3.77 10.59-8.95 10.59a8.5 8.5 0 0 1 -1.94-.21v7a7.05 7.05 0 0 0 2.31.42c7.75 0 11.36-4 16.39-16.39 2.64-6.53 16.64-41.55 16.64-41.55z"/><path d="m.9 72.92a3.67 3.67 0 0 0 2.29.84c.88 0 1.36-.38 1.36-.93 0-1.62-4.25-.62-4.25-3.57a2.56 2.56 0 0 1 2.8-2.55 4.5 4.5 0 0 1 2.77.93l-.87 1.22a3.17 3.17 0 0 0 -1.88-.64c-.83 0-1.19.41-1.19.86 0 1.55 4.24.71 4.24 3.65 0 1.57-1.19 2.53-3 2.53a5.17 5.17 0 0 1 -3.17-1.06z"/><path d="m10.2 79.4v-12.54h1.65v1.05a3.46 3.46 0 0 1 2.74-1.21 4.28 4.28 0 1 1 0 8.56 3.44 3.44 0 0 1 -2.74-1.19v5.33zm4.38-5.68a2.72 2.72 0 1 0 -2.68-2.72 2.66 2.66 0 0 0 2.67 2.72z"/><path d="m29.28 75v-1a3.44 3.44 0 0 1 -2.74 1.19 4.28 4.28 0 1 1 0-8.56 3.48 3.48 0 0 1 2.74 1.21v-.98h1.65v8.14zm-2.74-6.77a2.72 2.72 0 1 0 2.71 2.77 2.67 2.67 0 0 0 -2.71-2.73z"/><path d="m35.62 75v-8.14h1.65v1c.79-.95 1.6-1.14 3.19-1.14v1.58c-2.7 0-3.19 1.1-3.19 2.51v4.19z"/><path d="m49.19 75-3.48-3.91v3.91h-1.65v-11.62h1.65v6.86l3.15-3.38h2.19l-3.6 3.75 3.91 4.39z"/><path d="m57.89 75.15a3.67 3.67 0 0 1 -.91.12 2 2 0 0 1 -2.18-2.27v-9.62h1.65v9.06c0 .88.21 1.27 1 1.27a3.76 3.76 0 0 0 .41 0z"/><path d="m61.16 64.47a1.05 1.05 0 0 1 1.07-1.07 1.07 1.07 0 0 1 0 2.14 1.05 1.05 0 0 1 -1.07-1.07z"/><path d="m61.38 66.86h1.67v8.18h-1.67z"/><path d="m73.48 75v-4.25c0-1.64-.64-2.48-2-2.48s-2.08.91-2.08 2.6v4.13h-1.66v-8.14h1.65v.88a2.9 2.9 0 0 1 2.38-1c1.95 0 3.38 1.14 3.38 3.7v4.56z"/><path d="m86 74.08a3.44 3.44 0 0 1 -2.74 1.19 4.28 4.28 0 1 1 0-8.56 3.48 3.48 0 0 1 2.74 1.2v-1.05h1.65v7.51c0 4.1-2.5 5-4.34 5a4.28 4.28 0 0 1 -3.75-2l1.53-.65a2.5 2.5 0 0 0 2.2 1.1c1.41 0 2.7-.78 2.7-3.19zm-2.74-5.8a2.72 2.72 0 1 0 2.74 2.72 2.67 2.67 0 0 0 -2.71-2.73z"/><path d="m106.68 75-2.07-5.89-2 5.89h-1.76l-3.07-8.18h1.83l2.12 6 2.15-6h1.53l2.15 6 2.12-6h1.84l-3.12 8.18z"/><path d="m121.34 75v-1a3.44 3.44 0 0 1 -2.74 1.19 4.28 4.28 0 1 1 0-8.56 3.48 3.48 0 0 1 2.74 1.21v-.98h1.66v8.14zm-2.74-6.77a2.72 2.72 0 1 0 2.7 2.77 2.67 2.67 0 0 0 -2.7-2.73z"/><path d="m131.55 75.08a4.13 4.13 0 0 1 -1.29.19c-2 0-2.38-1.33-2.38-2.74v-4.1h-1.29v-1.57h1.29v-2.77h1.67v2.77h2.22v1.57h-2.22v3.91c0 .93.21 1.38 1.09 1.38a3.35 3.35 0 0 0 .91-.12z"/><path d="m136.58 71.55a2.65 2.65 0 0 0 2.65 2.22 2.81 2.81 0 0 0 2.29-1.12l1.17.9a4.55 4.55 0 1 1 .62-2.57 5.3 5.3 0 0 1 0 .57zm5-1.31a2.45 2.45 0 0 0 -2.48-2 2.57 2.57 0 0 0 -2.51 2z"/><path d="m147.26 75v-8.14h1.65v1c.79-.95 1.6-1.14 3.19-1.14v1.58c-2.7 0-3.19 1.1-3.19 2.51v4.19z"/><path d="m181.19 58v-2.9h-1.08v-.38h2.59v.38h-1.08v2.9z"/><path d="m183.54 58v-3.29h.65l.81 2.29c.07.22.12.38.16.48l.18-.52.78-2.27h.58v3.31h-.42v-2.76l-.99 2.76h-.39l-.9-2.8v2.8z"/></g></svg>