<svg height="77" viewBox="0 0 168.8 77" width="168.8" xmlns="http://www.w3.org/2000/svg"><path d="m145.21 42.51a2.27 2.27 0 1 1 2.27-2.27 2.25 2.25 0 0 1 -2.27 2.27" fill="#bdd431"/><g fill="#fff"><path d="m145.21 67.89a1.89 1.89 0 0 1 -1.89-1.89v-18.56a1.89 1.89 0 0 1 3.78 0v18.56a1.89 1.89 0 0 1 -1.89 1.89"/><path d="m64.11 68h-.11a7.27 7.27 0 0 1 -7.28-7.24v-8.03a7.3 7.3 0 0 1 7.28-7.28h.15a7.26 7.26 0 0 1 6.36 3.77 1.89 1.89 0 1 1 -3.35 1.78 3.47 3.47 0 0 0 -3-1.81h-.16a3.48 3.48 0 0 0 -3.47 3.5v8.05a3.48 3.48 0 0 0 3.47 3.51h.15a3.43 3.43 0 0 0 3-1.85 1.9 1.9 0 1 1 3.35 1.81 7.29 7.29 0 0 1 -6.39 3.79"/><path d="m81.73 68h-.15a7.23 7.23 0 0 1 -7.24-7.24v-8.03a7.27 7.27 0 0 1 7.24-7.28h.15a7.26 7.26 0 0 1 7.27 7.28v8.05a7.23 7.23 0 0 1 -7.27 7.22m3.47-15.29a3.48 3.48 0 0 0 -3.47-3.5h-.15a3.48 3.48 0 0 0 -3.47 3.5v8.05a3.48 3.48 0 0 0 3.47 3.47h.15a3.48 3.48 0 0 0 3.47-3.47z"/><path d="m104.7 49.84-.65-.23a4.26 4.26 0 0 0 -3.89.54 4.2 4.2 0 0 0 -1.77 3.47v12.38a1.91 1.91 0 0 1 -3.81 0v-12.38a8 8 0 0 1 10.75-7.55l.66.23a1.86 1.86 0 0 1 1.15 2.39 1.9 1.9 0 0 1 -2.43 1.16"/><path d="m166.87 67.83a1.9 1.9 0 0 1 -1.87-1.93v-13.17a3.48 3.48 0 0 0 -3.47-3.5h-.15a3.51 3.51 0 0 0 -3.47 3.5v13.17a1.89 1.89 0 1 1 -3.77 0v-13.17a7.27 7.27 0 0 1 7.24-7.28h.15a7.3 7.3 0 0 1 7.28 7.28v13.17a1.91 1.91 0 0 1 -1.93 1.93"/><path d="m125.5 47.5a1.87 1.87 0 1 0 -3.74 0v13.17a3.51 3.51 0 0 1 -3.5 3.5h-.15a3.51 3.51 0 0 1 -3.47-3.5v-13.17a1.89 1.89 0 1 0 -3.78 0v13.17a7.27 7.27 0 0 0 7.24 7.28h.15a7.19 7.19 0 0 0 5.37-2.41 7.15 7.15 0 0 0 5.38 2.41h.15a7.3 7.3 0 0 0 7.28-7.28v-13.17a1.91 1.91 0 1 0 -3.81 0v13.17a3.48 3.48 0 0 1 -3.47 3.5h-.15a3.52 3.52 0 0 1 -3.48-3.5z"/><path d="m25.31 38.32a13.68 13.68 0 0 1 1.41-6 22.57 22.57 0 1 0 18.08 18.46 13.72 13.72 0 0 1 -19.49-12.46"/></g><path d="m52.79 38.32a13.73 13.73 0 0 0 -26.07-6 22.56 22.56 0 0 1 18.08 18.46 13.73 13.73 0 0 0 8-12.47" fill="#bdd431"/><path d="m23.64 18.48a10.11 10.11 0 1 1 -10.11-10.11 10.11 10.11 0 0 1 10.11 10.11" fill="#ee8322"/><path d="m31.59 4.93a4.93 4.93 0 1 1 -4.92-4.93 4.93 4.93 0 0 1 4.93 4.93" fill="#fff"/></svg>