<svg height="100.81" viewBox="0 0 221 100.81" width="221" xmlns="http://www.w3.org/2000/svg"><path d="m190.12 55.65a3 3 0 1 1 3-3 2.95 2.95 0 0 1 -3 3" fill="#bdd431"/><g fill="#0068ad"><path d="m190.12 88.89a2.48 2.48 0 0 1 -2.47-2.47v-24.31a2.47 2.47 0 0 1 4.94 0v24.31a2.48 2.48 0 0 1 -2.47 2.47"/><path d="m83.94 89.06h-.2a9.51 9.51 0 0 1 -9.53-9.48v-10.58a9.56 9.56 0 0 1 9.53-9.53h.2a9.51 9.51 0 0 1 8.32 4.94 2.47 2.47 0 1 1 -4.34 2.37 4.54 4.54 0 0 0 -4-2.37h-.2a4.56 4.56 0 0 0 -4.52 4.59v10.58a4.55 4.55 0 0 0 4.54 4.54h.2a4.49 4.49 0 0 0 4-2.42 2.49 2.49 0 1 1 4.39 2.37 9.54 9.54 0 0 1 -8.37 5"/><path d="m107 89.06h-.2a9.47 9.47 0 0 1 -9.48-9.48v-10.58a9.51 9.51 0 0 1 9.48-9.53h.2a9.51 9.51 0 0 1 9.48 9.53v10.58a9.47 9.47 0 0 1 -9.48 9.48m4.54-20a4.56 4.56 0 0 0 -4.54-4.61h-.2a4.56 4.56 0 0 0 -4.54 4.55v10.58a4.55 4.55 0 0 0 4.54 4.54h.2a4.55 4.55 0 0 0 4.54-4.54z"/><path d="m137.07 65.26-.86-.3a5.57 5.57 0 0 0 -5.09.71 5.5 5.5 0 0 0 -2.32 4.54v16.23a2.5 2.5 0 0 1 -5 0v-16.24a10.5 10.5 0 0 1 14.07-9.89l.86.3a2.44 2.44 0 0 1 1.51 3.13 2.49 2.49 0 0 1 -3.18 1.51"/><path d="m218.48 88.81a2.49 2.49 0 0 1 -2.48-2.52v-17.29a4.56 4.56 0 0 0 -4.54-4.59h-.2a4.6 4.6 0 0 0 -4.53 4.59v17.29a2.47 2.47 0 1 1 -4.94 0v-17.29a9.51 9.51 0 0 1 9.48-9.53h.2a9.56 9.56 0 0 1 9.53 9.53v17.29a2.5 2.5 0 0 1 -2.52 2.52"/><path d="m164.31 62.18a2.45 2.45 0 1 0 -4.9 0v17.25a4.6 4.6 0 0 1 -4.58 4.57h-.2a4.6 4.6 0 0 1 -4.54-4.59v-17.23a2.47 2.47 0 1 0 -4.94 0v17.25a9.51 9.51 0 0 0 9.48 9.57h.2a9.42 9.42 0 0 0 7-3.15 9.36 9.36 0 0 0 7 3.15h.2a9.55 9.55 0 0 0 9.53-9.53v-17.29a2.5 2.5 0 1 0 -5 0v17.25a4.56 4.56 0 0 1 -4.49 4.57h-.2a4.61 4.61 0 0 1 -4.55-4.59z"/><path d="m33.14 50.16a17.91 17.91 0 0 1 1.86-7.89 29.55 29.55 0 1 0 23.66 24.22 18 18 0 0 1 -25.52-16.33"/></g><path d="m69.12 50.16a18 18 0 0 0 -34.12-7.89 29.54 29.54 0 0 1 23.66 24.22 18 18 0 0 0 10.46-16.33" fill="#bdd431"/><path d="m31 24.19a13.24 13.24 0 1 1 -13.29-13.19 13.24 13.24 0 0 1 13.29 13.19" fill="#ee8322"/><path d="m41.36 6.45a6.45 6.45 0 1 1 -6.45-6.45 6.45 6.45 0 0 1 6.45 6.45" fill="#0068ad"/></svg>