<svg height="242.47" viewBox="0 0 300 242.47" width="300" xmlns="http://www.w3.org/2000/svg"><path d="m163.23 113.63s-11.9-113.63-56.68-113.63h-71.92v104.55h-15.4c-40.09 51.15-5.05 108.27-5.05 108.27h16.37a30.54 30.54 0 0 1 61 0h50.89v-.41a32.48 32.48 0 0 1 65 0 35.75 35.75 0 0 1 -.58 6.07h11.51l-35.8-103.4c-17.5 9.89-19.28-1.45-19.28-1.45zm-57.88 3.63-16.95-29.63h-36.75v-70.63h51.91c15.13 0 23.47 21 27.84 38.79 2.84 11.32 11.42 52.47 12.15 61.45zm0 0" fill="#231f20"/><path d="m174.34 183.68a28.22 28.22 0 1 0 28.17 28.26 28.21 28.21 0 0 0 -28.17-28.26zm0 44.61a16.36 16.36 0 1 1 16.27-16.36 16.4 16.4 0 0 1 -16.27 16.36zm0 0" fill="#231f20"/><path d="m61 188.86a26.81 26.81 0 1 0 26.81 26.81 26.84 26.84 0 0 0 -26.81-26.81zm0 42.36a15.55 15.55 0 1 1 15.55-15.55 15.48 15.48 0 0 1 -15.55 15.54zm0 0" fill="#231f20"/><path d="m299.7 185a6 6 0 0 0 -7.69-3.79l-58.79 19.34-50.8-152.6a6.06 6.06 0 0 0 -7.69-3.81 6 6 0 0 0 -3.79 7.69l52.72 158.33a6.07 6.07 0 0 0 5.74 4.13 9 9 0 0 0 1.95-.23l64.45-21.31a6.12 6.12 0 0 0 3.9-7.69zm0 0" fill="#231f20"/><path d="m127.67 149.18a1.27 1.27 0 1 1 1.27-1.27 1.25 1.25 0 0 1 -1.27 1.27" fill="#bdd431"/><g fill="#fff"><path d="m127.67 163.31a1.05 1.05 0 0 1 -1.05-1.05v-10.34a1.05 1.05 0 0 1 2.1 0v10.34a1.05 1.05 0 0 1 -1.05 1.05"/><path d="m82.51 163.39h-.08a4 4 0 0 1 -4.06-4v-4.48a4.07 4.07 0 0 1 4.06-4.05h.08a4 4 0 0 1 3.54 2.1 1.05 1.05 0 1 1 -1.85 1 1.93 1.93 0 0 0 -1.69-1h-.08a1.94 1.94 0 0 0 -1.93 2v4.48a1.94 1.94 0 0 0 1.93 1.93h.08a1.91 1.91 0 0 0 1.69-1 1.06 1.06 0 1 1 1.87 1 4.06 4.06 0 0 1 -3.56 2.12"/><path d="m92.32 163.39h-.09a4 4 0 0 1 -4-4v-4.48a4 4 0 0 1 4-4.05h.09a4 4 0 0 1 4 4.05v4.48a4 4 0 0 1 -4 4m1.93-8.52a1.94 1.94 0 0 0 -1.93-2h-.09a1.94 1.94 0 0 0 -1.93 2v4.48a1.94 1.94 0 0 0 1.93 1.93h.09a1.94 1.94 0 0 0 1.93-1.93z"/><path d="m105.11 153.26-.36-.13a2.37 2.37 0 0 0 -2.17.3 2.34 2.34 0 0 0 -1 1.93v6.91a1.06 1.06 0 0 1 -2.12 0v-6.91a4.46 4.46 0 0 1 6-4.21l.37.13a1 1 0 0 1 .64 1.33 1.06 1.06 0 0 1 -1.35.64"/><path d="m139.74 163.28a1.06 1.06 0 0 1 -1.05-1.07v-7.34a1.94 1.94 0 0 0 -1.93-2h-.08a2 2 0 0 0 -1.93 2v7.34a1.05 1.05 0 1 1 -2.1 0v-7.34a4 4 0 0 1 4-4.05h.08a4.07 4.07 0 0 1 4.06 4.05v7.34a1.06 1.06 0 0 1 -1.07 1.07"/><path d="m116.69 152a1 1 0 1 0 -2.08 0v7.34a2 2 0 0 1 -1.95 2h-.08a2 2 0 0 1 -1.93-2v-7.34a1.05 1.05 0 1 0 -2.1 0v7.34a4 4 0 0 0 4 4.05h.08a4 4 0 0 0 3-1.34 4 4 0 0 0 3 1.34h.09a4.06 4.06 0 0 0 4.05-4.05v-7.34a1.06 1.06 0 1 0 -2.12 0v7.34a1.94 1.94 0 0 1 -1.93 2h-.09a2 2 0 0 1 -1.94-2z"/><path d="m60.89 146.84a7.62 7.62 0 0 1 .78-3.36 12.57 12.57 0 1 0 10.07 10.3 7.64 7.64 0 0 1 -10.86-6.94"/></g><path d="m76.2 146.84a7.65 7.65 0 0 0 -14.52-3.36 12.57 12.57 0 0 1 10.07 10.3 7.65 7.65 0 0 0 4.45-6.94" fill="#bdd431"/><path d="m60 135.79a5.63 5.63 0 1 1 -5.63-5.63 5.63 5.63 0 0 1 5.63 5.63" fill="#ee8322"/><path d="m64.39 128.24a2.74 2.74 0 1 1 -2.74-2.74 2.74 2.74 0 0 1 2.74 2.74" fill="#fff"/></svg>