<svg height="98.48" viewBox="0 0 193.08 98.48" width="193.08" xmlns="http://www.w3.org/2000/svg"><path d="m0 0h193.08v98.48h-193.08z" fill="#f15a24"/><g fill="#fff"><path d="m0 85.21h193.08v2.99h-193.08z"/><path d="m49 43.53a4.32 4.32 0 0 1 -.71 1l-.77.77c-.12 0-.21.41-.12.49.12.25.33.29.62.12a2.23 2.23 0 0 0 .62-.11 5.23 5.23 0 0 0 1.73-2q.25-.25-.25-.49a1 1 0 0 0 -1.12.22z"/><path d="m106.36 49.6q.19-.19 0-.62c0-.16-.83 0-1.11.11q-1.3.68-3.18 1.54l-4.68 2.13.08-.33q.56-1.23.89-2.16a4.57 4.57 0 0 0 .34-1.27.18.18 0 0 0 -.06-.12.44.44 0 0 1 -.09-.12.53.53 0 0 0 -.09-.12 1.86 1.86 0 0 0 -1.08.17c-.1.12-.11.14 0 .06v.13a7.3 7.3 0 0 1 -2.07 1.82 4.79 4.79 0 0 1 -1 .44c-.11 0-.43-.28-.43-.28q-.43-.43.62-2.22l.14-.1a.59.59 0 0 0 .23-.29c.18-.24.19-.44 0-.57a2 2 0 0 0 -1.48.36l-.12.12c-.25.25-2.69 1.79-2.72 1.9-.9.56-1.86 1.16-2.93 1.8l-3.89 2.31q-2 1.2-4.13 2.5l-.75.5a54.62 54.62 0 0 0 3.87-5.46q1.45-2.44 2.31-3.92c.12-.21.06-.39-.19-.56a1.29 1.29 0 0 0 -1.17.17q-.87.86-1.94 1.85a23.08 23.08 0 0 1 -2.16 1.76 12.33 12.33 0 0 1 -1.94 1.17 1 1 0 0 1 -.62-.08.75.75 0 0 1 -.09-1 4.9 4.9 0 0 1 1.08-1.37h.07c.62-.39 2-1.37 2.22-1.51a19.49 19.49 0 0 1 3-1.3.64.64 0 0 0 .37-.62q-.12-.25-.62-.25a3 3 0 0 1 -.62.11q-1.24.49-2.62 1.2a15.82 15.82 0 0 0 -2.43 1.52l-.18.11q-.93.56-2 1.11a22.39 22.39 0 0 1 -2 1 3.9 3.9 0 0 1 -.43.13 1.05 1.05 0 0 1 -.37 0q-.43-.19-.15-1a2.72 2.72 0 0 1 1.08-1.39.43.43 0 0 0 .09-.62c-.13-.22-.37-.2-.7 0-.16-.13-.4-.08-.75.2-.1.08-.34.17-.37.13a1.72 1.72 0 0 0 -.77-.68 2.81 2.81 0 0 0 -1.33-.31 4 4 0 0 0 -1.19.2 4.54 4.54 0 0 0 -1.65.57 7.61 7.61 0 0 0 -1.69 1.33c-.6.26-1.24.52-1.94.77q-1.48.52-3.06 1c-.47.13-.91.23-1.35.32s-.64.12-.93.15a6.91 6.91 0 0 1 -2.19 0q-.86-.19-.86-.93a2.38 2.38 0 0 1 .25-1 8.35 8.35 0 0 1 .62-1.08l1.21-1.01q1.42-.93 3.36-2.35t3.83-2.9q1.88-1.48 3.49-2.78t2.41-2a29.41 29.41 0 0 0 2.53-2.47 4.07 4.07 0 0 0 1-1.73q0-.49-.62-.49l-1 .11a17.09 17.09 0 0 0 -4 2.19 56.46 56.46 0 0 0 -4.78 3.7q-2.41 2.07-4.6 4.32a42.57 42.57 0 0 0 -3.49 4l-.37.62s-2.78 1.46-3.77 1.91a21.22 21.22 0 0 1 -2.72 1l-.77.22a4.62 4.62 0 0 1 -.71.1.8.8 0 0 1 -.68-.25q-.19-.25.31-1 .31-.49.62-.93a4.38 4.38 0 0 1 1-.93q.31-.18.09-.56c-.14-.25-1-.15-1.21-.07-.45.25-3.74 2.24-3.76 2.33a20 20 0 0 1 -3 1.55q-3.71 1.51-7.87 2.81l-2.22.6.7-.5a17.3 17.3 0 0 0 3.33-3.83q1.11-2 .65-3.18a2.72 2.72 0 0 0 -2.13-1.49 15.09 15.09 0 0 0 -3.55-.25 40.2 40.2 0 0 0 -4.35.37q-2.35.31-4.54.49a20.13 20.13 0 0 1 -3.86 0 4.54 4.54 0 0 1 -2.3-.61q-.65-.49-.28-1.6a8.53 8.53 0 0 1 2.38-3.58 31.79 31.79 0 0 1 4.66-3.7 59.62 59.62 0 0 1 6.2-3.58q3.42-1.73 7-3.21a68.84 68.84 0 0 1 6.88-2.33c2.12-.6 4-1.05 5.76-1.38a12.23 12.23 0 0 1 4.09-.14q1.6.31 1.79 1a3.6 3.6 0 0 1 -.46 2.62 12.59 12.59 0 0 1 -2.35 3 29.42 29.42 0 0 1 -3.73 3.06 45.8 45.8 0 0 1 -4.57 2.84 43 43 0 0 1 -4.81 2.13 22.78 22.78 0 0 1 -3.58 1 5.92 5.92 0 0 1 -2.71-.13 1.51 1.51 0 0 1 -1.14-1.42 1.62 1.62 0 0 1 .37-1.23 9.12 9.12 0 0 1 1.39-1.57 20.72 20.72 0 0 1 2.18-1.78q1.26-.89 2.75-1.76a37.56 37.56 0 0 1 5.09-2.5 21.5 21.5 0 0 1 3.2-1l.34-.06 1.11.12a.28.28 0 0 1 .09.37c-.06.16-.13.25-.22.25a.81.81 0 0 0 -.19.28.35.35 0 0 0 .06.34c0 .25.84.15 1.11 0a1.35 1.35 0 0 0 .67-1.04q.09-.8-1-1.11a16.27 16.27 0 0 0 -2.69.24 20.79 20.79 0 0 0 -2.62.74q-1.42.49-3 1.2t-3 1.51q-1.42.87-2.75 1.79a18.6 18.6 0 0 0 -2.31 1.88 10.44 10.44 0 0 0 -1.57 1.88 2.83 2.83 0 0 0 -.52 1.73 2.19 2.19 0 0 0 1.54 2 7.56 7.56 0 0 0 3.39.12l.43-.09h.19a22.54 22.54 0 0 0 4.44-1.2 43.1 43.1 0 0 0 4.69-2.07 50.77 50.77 0 0 0 4.54-2.78 27.48 27.48 0 0 0 3.92-3.21 14.8 14.8 0 0 0 2.56-3.3 3.88 3.88 0 0 0 .46-3.05q-.37-1.36-2.35-1.7a15.07 15.07 0 0 0 -4.84.12l-.44.09h-.18a47.55 47.55 0 0 0 -6.3 1.51q-3.4 1.05-6.7 2.41-3.52 1.42-7 3.15a54.56 54.56 0 0 0 -6.36 3.67 33.09 33.09 0 0 0 -4.84 3.92 9.48 9.48 0 0 0 -2.5 3.82 2.64 2.64 0 0 0 -.06 1.48 2 2 0 0 0 .68 1 3.13 3.13 0 0 0 1.23.59 9.28 9.28 0 0 0 1.6.25 23.3 23.3 0 0 0 3.92-.09l4.47-.4q2.41-.31 4.44-.43a11.72 11.72 0 0 1 3.33.18q1.3.31 1.57 1.08a3.26 3.26 0 0 1 -.59 2.38 14.45 14.45 0 0 1 -2.29 2.79c-.91.86-3 2.46-3 2.46-2 .49-6 1.44-7.92 2s-3.79 1.12-5.71 1.73a22.48 22.48 0 0 0 -4.44 1.64q-1.72.91-2 1.81c-.16.27-.05.6.33 1a3.87 3.87 0 0 0 2.3.25 11 11 0 0 0 1.15-.19 19.17 19.17 0 0 0 3.58-1q3.45-1.15 7.11-2.59a48.05 48.05 0 0 0 6.86-3.33s7-2.73 10.32-3.91a31.28 31.28 0 0 0 5.66-2.68 4.18 4.18 0 0 0 -.3.6 1.17 1.17 0 0 0 .19 1.11q.43.62 1.79.4l.62-.11a16 16 0 0 0 2.9-.77 25.1 25.1 0 0 0 2.93-1.26l.75-.39-.13.35a2.38 2.38 0 0 0 -.15.8 1.36 1.36 0 0 0 .46 1.08 2.29 2.29 0 0 0 1 .52 7.23 7.23 0 0 0 3.12.09l.59-.11a25.87 25.87 0 0 0 4-.9c.61-.19 1.17-.4 1.73-.61a2.42 2.42 0 0 0 -.16.45 1.13 1.13 0 0 0 .56 1.33 1.46 1.46 0 0 0 1.17 0h.13a2.48 2.48 0 0 0 .49-.07 12.83 12.83 0 0 0 1.77-.62 14.21 14.21 0 0 0 1.91-1l.84-.55a1.55 1.55 0 0 0 0 .76 1.07 1.07 0 0 0 .83.8 2.72 2.72 0 0 0 1.28-.07 4.1 4.1 0 0 0 1.14-.24 16.07 16.07 0 0 0 1.54-.64 1.4 1.4 0 0 0 .15 1.18c.32.71 1 .9 2 .63a3.44 3.44 0 0 0 1.09-.25 12.72 12.72 0 0 0 3.46-2.4c-.75 1.11-1.53 2.26-2.39 3.5-1.19 1.73-2.93 4-2.93 4l-1.43.91c-1.85 1.19-3 1.69-4.66 2.83s-3.12 2.19-4.35 3.18a34.17 34.17 0 0 0 -3.09 2.75 3.49 3.49 0 0 0 -1.23 2.19v.12a1.08 1.08 0 0 0 .68.83 6.39 6.39 0 0 0 1.67-.08 5.17 5.17 0 0 0 1.2-.62l1.51-1a28.84 28.84 0 0 0 3.64-3c1.32-1.23 5.63-5.42 7.07-6.91l2.85-1.64q2.1-1.36 4.14-2.62l3.89-2.41q1.85-1.14 3.36-2.13l.3-.2a1.88 1.88 0 0 0 .37 1.67v.12a1.68 1.68 0 0 0 1.6.18 2.13 2.13 0 0 0 .56-.07 5.94 5.94 0 0 0 1.67-.92l-.81 2-.37.49-2.1 1q-1.54.8-3 1.64t-2.62 1.7a15.19 15.19 0 0 0 -2.07 1.76 5.71 5.71 0 0 0 -1.23 1.82q-.47 1.51.28 2.17a1.4 1.4 0 0 0 1 .4 11.75 11.75 0 0 0 1.88-.27 6.9 6.9 0 0 0 2.81-1.2 11.81 11.81 0 0 0 2.71-2.59 18.7 18.7 0 0 0 1.85-2.57l1.51-2.53.25-.86 1.11-.37q2.35-1.11 4.69-2.16a40.6 40.6 0 0 0 3.8-1.91zm-35.16-.6-.89.63q-1 .68-2 1.27a19.16 19.16 0 0 1 -1.94 1 4 4 0 0 1 -.5.16 1.62 1.62 0 0 1 -.37 0q-.37-.25-.09-.83a4.21 4.21 0 0 1 .64-.91 1.38 1.38 0 0 0 .75-.73 7.32 7.32 0 0 1 1.05-.74 4.16 4.16 0 0 1 .79-.35h.2a1.74 1.74 0 0 1 1 .22 5.68 5.68 0 0 0 .59.4.33.33 0 0 0 .4 0c.07 0 .18-.1.22-.08a.29.29 0 0 0 .15-.04zm.32-14.36-.37.37q-.49.56-1.08 1.14a18.54 18.54 0 0 1 -1.51 1.33l-2.1 1.73q-1.46 1.18-3.11 2.47l-3.35 2.56c-.84.64-1.54 1.15-2.17 1.58.55-.59 1.15-1.23 1.87-2q1.67-1.73 3.7-3.52t4.26-3.43a25.25 25.25 0 0 1 4-2.41zm-61.96 28.36c-1 0-.59-.83.41-1.31a27.91 27.91 0 0 1 4.38-1.54q3.16-1 6.32-1.81c1.83-.47 3.65-1 5.48-1.55l-1.22.76q-2.93 1.4-5.77 2.45t-5.78 2.08a25.86 25.86 0 0 1 -3.09.86 6.83 6.83 0 0 1 -.73.06zm54.08 6.79a.39.39 0 0 1 -.06-.22v-.25a6.75 6.75 0 0 1 1.23-1.67 25.81 25.81 0 0 1 2.72-2.41q1.42-1.11 3.15-2.31t3.76-2.5l.49-.25-.21.21-1 1.14q-2.16 2.16-4.1 3.92t-3.55 3a7 7 0 0 1 -2.4 1.34zm22.36-6.86a.62.62 0 0 1 -.25-.4 1.82 1.82 0 0 1 .25-1 8 8 0 0 1 3.12-3.3 44.5 44.5 0 0 1 5.52-3.12h.08l-.57 1.14q-.56.93-1 1.7t-1.17 1.64a10.5 10.5 0 0 1 -2.6 2.41 6.68 6.68 0 0 1 -2.53 1.14h-.12c-.38.08-.64 0-.73-.21z"/><path d="m185.76 48.36c-.16-.21-1-.06-1.24.11a26.94 26.94 0 0 1 -4 2.13 17 17 0 0 1 -3.36 1.1l-.65.11a4.15 4.15 0 0 1 -2.28-.25 2.23 2.23 0 0 1 -1.23-1.19c.27-.14 1.92-.93 2.43-1.21a5.86 5.86 0 0 0 1.3-1 1.32 1.32 0 0 0 .46-1.08.79.79 0 0 0 -.68-.71 3.06 3.06 0 0 0 -1.3 0l-.62.11a4.28 4.28 0 0 0 -1.73.86 3.86 3.86 0 0 0 -1.23 1.6 2.76 2.76 0 0 0 -.23 1.12c-.57.28-1.12.54-1.62.76a25.29 25.29 0 0 1 -3.69 1.32 6 6 0 0 1 -1 0c-.6 0-.89-.15-.89-.4a2.33 2.33 0 0 1 .59-1.51 7 7 0 0 1 1.26-1.2 7.34 7.34 0 0 1 1.64-1 3.73 3.73 0 0 1 .44-.15.82.82 0 0 1 .27 0c-.21.21-.4.39-.59.56a3 3 0 0 1 -.65.43q-.31.25-.12.52c.12.19 1 .07 1.11 0a3.13 3.13 0 0 0 .71-.43 4.09 4.09 0 0 0 .68-.65 1.26 1.26 0 0 0 .31-.68.63.63 0 0 0 -.34-.59 2.1 2.1 0 0 0 -1.14-.06l-.62.11a5.63 5.63 0 0 0 -1.26.4 21.12 21.12 0 0 0 -2 1.26c-.06.05-.78.55-1 .71q-.68.4-1.27.71l-1.14.59a11.79 11.79 0 0 1 -1.23.52c-.33.11-.73.22-1.18.33a3.34 3.34 0 0 1 -.92 0 .79.79 0 0 1 -.74-.56q-.12-.46.62-1.57a1.41 1.41 0 0 1 .31-.46c.08-.06.06-.19-.06-.4a.39.39 0 0 0 -.34-.18 3.67 3.67 0 0 0 -1.39.67 13.45 13.45 0 0 1 -2.53 1.51 5.46 5.46 0 0 1 -.6.23.88.88 0 0 1 -.57-.13q-.56-.74.49-2.47l.25-.25q.49-.49.12-.74c-.2-.13-1.61.48-1.61.48s-1.3.86-1.91 1.23-1.28.74-2 1.11a22.37 22.37 0 0 1 -2 1 3.89 3.89 0 0 1 -.43.13 1.05 1.05 0 0 1 -.37 0q-.43-.19-.15-1a2.71 2.71 0 0 1 1.08-1.39.43.43 0 0 0 .09-.62c-.13-.22-1.1 0-1.45.24l-.34.25a.21.21 0 0 0 0-.11 1.72 1.72 0 0 0 -.77-.68 2.81 2.81 0 0 0 -1.33-.31 4 4 0 0 0 -1.19.2 4.54 4.54 0 0 0 -1.65.57 7.53 7.53 0 0 0 -1.85 1.48 4.3 4.3 0 0 0 -.63.93 1.74 1.74 0 0 0 -1 .07 6.36 6.36 0 0 0 -1.69.46q-3.73 1.48-7.93 2.78l-2.18.64.7-.5a17.3 17.3 0 0 0 3.33-3.83q1.11-2 .65-3.18a2.72 2.72 0 0 0 -2.13-1.51 15.09 15.09 0 0 0 -3.55-.25 40.2 40.2 0 0 0 -4.35.37q-2.35.31-4.54.49a20.13 20.13 0 0 1 -3.86 0 4.54 4.54 0 0 1 -2.31-.62q-.65-.49-.28-1.6a8.53 8.53 0 0 1 2.38-3.58 31.79 31.79 0 0 1 4.66-3.7 59.59 59.59 0 0 1 6.2-3.58q3.42-1.73 7-3.21a68.83 68.83 0 0 1 6.88-2.38c2.12-.6 4-1.05 5.76-1.38a12.23 12.23 0 0 1 4.09-.14q1.6.31 1.79 1a3.6 3.6 0 0 1 -.46 2.62 12.59 12.59 0 0 1 -2.35 3 29.44 29.44 0 0 1 -3.73 3.06 45.86 45.86 0 0 1 -4.57 2.81 43 43 0 0 1 -4.81 2.13 22.76 22.76 0 0 1 -3.58 1 5.92 5.92 0 0 1 -2.68-.1 1.51 1.51 0 0 1 -1.24-1.36 1.62 1.62 0 0 1 .37-1.23 9.12 9.12 0 0 1 1.39-1.57 20.72 20.72 0 0 1 2.16-1.73q1.26-.89 2.75-1.76a37.56 37.56 0 0 1 5.09-2.5 21.52 21.52 0 0 1 3.2-1c.11 0 1.45.07 1.45.07a.28.28 0 0 1 .09.37c-.06.16-.13.25-.22.25a.81.81 0 0 0 -.19.28.35.35 0 0 0 .06.34c0 .25.84.15 1.11 0a1.35 1.35 0 0 0 .65-1.11q.09-.8-1-1.11a12.7 12.7 0 0 0 -2.32.19l-.37.05a20.84 20.84 0 0 0 -2.62.74q-1.42.49-3 1.2t-3 1.51q-1.42.87-2.75 1.79a18.57 18.57 0 0 0 -2.31 1.88 10.43 10.43 0 0 0 -1.54 1.85 2.83 2.83 0 0 0 -.52 1.73 2.19 2.19 0 0 0 1.54 2 7.56 7.56 0 0 0 3.39.12l.43-.09h.19a22.54 22.54 0 0 0 4.44-1.2 43.1 43.1 0 0 0 4.69-2.07 50.8 50.8 0 0 0 4.54-2.78 27.49 27.49 0 0 0 3.92-3.21 14.81 14.81 0 0 0 2.56-3.3 3.88 3.88 0 0 0 .46-3.05q-.37-1.36-2.35-1.7a15.07 15.07 0 0 0 -4.84.12l-.44.09h-.18a47.58 47.58 0 0 0 -6.3 1.51q-3.42 1.05-6.76 2.41-3.52 1.42-7 3.15a54.56 54.56 0 0 0 -6.36 3.67 33.09 33.09 0 0 0 -4.84 3.92 9.48 9.48 0 0 0 -2.48 3.89 2.64 2.64 0 0 0 -.06 1.48 2 2 0 0 0 .68 1 3.13 3.13 0 0 0 1.23.59 9.28 9.28 0 0 0 1.6.25 23.3 23.3 0 0 0 3.92-.09l4.47-.4q2.41-.31 4.44-.43a11.72 11.72 0 0 1 3.33.18q1.3.31 1.57 1.08a3.26 3.26 0 0 1 -.57 2.34 14.44 14.44 0 0 1 -2.28 2.78c-.91.86-2.84 2.32-2.84 2.32-2 .49-6.15 1.58-8 2.13s-3.79 1.12-5.71 1.73a22.49 22.49 0 0 0 -4.44 1.64q-1.72.91-2 1.81-.25.41.33 1a3.87 3.87 0 0 0 2.3.25 11 11 0 0 0 1.15-.19 19.17 19.17 0 0 0 3.58-1q3.45-1.15 7.11-2.59a48.06 48.06 0 0 0 6.86-3.33s8.57-3.31 11.86-4.48a7.3 7.3 0 0 0 2-1 3.23 3.23 0 0 0 -.17.47 1.13 1.13 0 0 0 .56 1.33 5 5 0 0 0 1.79-.08 12.83 12.83 0 0 0 1.79-.65 14.21 14.21 0 0 0 1.91-1l.84-.55a1.55 1.55 0 0 0 0 .76 1.07 1.07 0 0 0 .83.8 2.72 2.72 0 0 0 1.28-.07 4.1 4.1 0 0 0 1.09-.22 16.37 16.37 0 0 0 2.16-.93q1.08-.56 2-1.14l.21-.13a2 2 0 0 0 -.15 1 1.71 1.71 0 0 0 .43.86c.33.33 1.72.23 1.79.22a3.27 3.27 0 0 0 .4-.05 8 8 0 0 0 2.18-.92 1.39 1.39 0 0 0 .07 1 1.52 1.52 0 0 0 1 .8 4.2 4.2 0 0 0 1.82 0l.62-.11a11.29 11.29 0 0 0 2.28-.74c.53-.23 1.06-.5 1.6-.78a2.36 2.36 0 0 0 -.21 1.23 1.31 1.31 0 0 0 1.42 1 8 8 0 0 0 2.16-.22h.06c.19 0 .38-.05.56-.1a26.63 26.63 0 0 0 3.8-1.36l.9-.41a2.15 2.15 0 0 0 .46.65 3.72 3.72 0 0 0 1.26.77 4.52 4.52 0 0 0 1.6.28 11 11 0 0 0 1.91-.2 12.14 12.14 0 0 0 1.39-.26 20.58 20.58 0 0 0 2.72-.86 23.54 23.54 0 0 0 2.53-1.17 19.44 19.44 0 0 0 2.12-1.29c.25-.23.29-.44.13-.64zm-82.07 14.38c-1 0-.59-.83.41-1.31a27.92 27.92 0 0 1 4.38-1.54q3.16-1 6.32-1.81c1.83-.47 3.65-1 5.48-1.55l-1.22.76q-2.89 1.35-5.78 2.44t-5.78 2.08a25.84 25.84 0 0 1 -3.09.86 6.85 6.85 0 0 1 -.72.07zm72.07-15.5a1.09 1.09 0 0 1 -.46.77h-.05a.27.27 0 0 0 -.1.05c-.74.43-1.42.8-2.08 1.16a4.39 4.39 0 0 1 1.16-1.49 3 3 0 0 1 1-.58 2.17 2.17 0 0 1 .53.09zm-32 1.77-.89.63q-1 .68-2 1.27a19.18 19.18 0 0 1 -1.94 1 4 4 0 0 1 -.5.16 1.62 1.62 0 0 1 -.37 0q-.37-.25-.09-.83a4.6 4.6 0 0 1 .93-1.23 7.11 7.11 0 0 1 1.51-1.14 4.15 4.15 0 0 1 .79-.35h.2a1.74 1.74 0 0 1 1 .22 5.68 5.68 0 0 0 .59.4.33.33 0 0 0 .4 0 .31.31 0 0 0 .12-.15l.1.07a.29.29 0 0 0 .17-.06z"/></g></svg>