<svg viewBox="0 0 32.11 26.09" xmlns="http://www.w3.org/2000/svg"><path d="m32.11 3.09a13.17 13.17 0 0 1 -3.78 1 6.61 6.61 0 0 0 2.89-3.61 13.2 13.2 0 0 1 -4.22 1.6 6.59 6.59 0 0 0 -11.22 6 18.7 18.7 0 0 1 -13.54-6.87 6.59 6.59 0 0 0 2 8.79 6.55 6.55 0 0 1 -3-.82s0 .06 0 .08a6.59 6.59 0 0 0 5.28 6.46 6.6 6.6 0 0 1 -3 .11 6.59 6.59 0 0 0 6.15 4.57 13.22 13.22 0 0 1 -8.18 2.82 13.21 13.21 0 0 1 -1.49-.09 18.64 18.64 0 0 0 10.1 3c12.12 0 18.74-10 18.74-18.74q0-.43 0-.85a13.38 13.38 0 0 0 3.27-3.45z" fill="#fff"/></svg>